{
    "accessors" : [
        {
            "bufferView" : 0,
            "componentType" : 5121,
            "count" : 72,
            "max" : [
                55
            ],
            "min" : [
                0
            ],
            "type" : "SCALAR"
        },
        {
            "bufferView" : 1,
            "componentType" : 5126,
            "count" : 56,
            "max" : [
                1.8118172883987427,
                3.586679697036743,
                1.450156807899475
            ],
            "min" : [
                -1.8246198892593384,
                1.9203535318374634,
                -1.8495548963546753
            ],
            "type" : "VEC3"
        },
        {
            "bufferView" : 2,
            "componentType" : 5126,
            "count" : 56,
            "max" : [
                0.9909379482269287,
                0.5433605313301086,
                0.9800446033477783
            ],
            "min" : [
                -0.999985933303833,
                -0.22339756786823273,
                -0.9853788018226624
            ],
            "type" : "VEC3"
        },
        {
            "bufferView" : 3,
            "componentType" : 5126,
            "count" : 56,
            "max" : [
                0.9858477115631104,
                0.9729704260826111,
                0.7754818201065063,
                1.0
            ],
            "min" : [
                -0.9382333159446716,
                -0.3479589819908142,
                -0.991363525390625,
                -1.0
            ],
            "type" : "VEC4"
        },
        {
            "bufferView" : 4,
            "componentType" : 5126,
            "count" : 56,
            "max" : [
                0.9755306243896484,
                1.0
            ],
            "min" : [
                0.0,
                0.8385452926158905
            ],
            "type" : "VEC2"
        },
        {
            "bufferView" : 5,
            "componentType" : 5126,
            "count" : 56,
            "max" : [
                1.0,
                1.0,
                1.0,
                1.0
            ],
            "min" : [
                0.0021246889023681177,
                0.015208515845550913,
                0.046665086581566644,
                1.0
            ],
            "type" : "VEC4"
        },
        {
            "bufferView" : 6,
            "componentType" : 5123,
            "count" : 56,
            "max" : [
                7,
                8,
                9,
                17
            ],
            "min" : [
                6,
                7,
                9,
                10
            ],
            "type" : "VEC4"
        },
        {
            "bufferView" : 7,
            "componentType" : 5126,
            "count" : 56,
            "max" : [
                0.0,
                0.0,
                0.0,
                0.0
            ],
            "min" : [
                0.0,
                0.0,
                0.0,
                0.0
            ],
            "type" : "VEC4"
        },
        {
            "bufferView" : 8,
            "componentType" : 5123,
            "count" : 56,
            "max" : [
                17,
                11,
                0,
                0
            ],
            "min" : [
                11,
                0,
                0,
                0
            ],
            "type" : "VEC4"
        },
        {
            "bufferView" : 9,
            "componentType" : 5126,
            "count" : 56,
            "max" : [
                1.0,
                1.0,
                0.0,
                0.0
            ],
            "min" : [
                0.0,
                0.0,
                0.0,
                0.0
            ],
            "type" : "VEC4"
        },
        {
            "bufferView" : 10,
            "componentType" : 5123,
            "count" : 1260,
            "max" : [
                1155
            ],
            "min" : [
                0
            ],
            "type" : "SCALAR"
        },
        {
            "bufferView" : 11,
            "componentType" : 5126,
            "count" : 1156,
            "max" : [
                2.626432180404663,
                8.516644477844238,
                1.3511474132537842
            ],
            "min" : [
                -2.626432180404663,
                0.0072489576414227486,
                -2.103292465209961
            ],
            "type" : "VEC3"
        },
        {
            "bufferView" : 12,
            "componentType" : 5126,
            "count" : 1156,
            "max" : [
                0.9997681379318237,
                0.947200357913971,
                0.9887301325798035
            ],
            "min" : [
                -0.999768078327179,
                -0.9999997019767761,
                -0.9776545763015747
            ],
            "type" : "VEC3"
        },
        {
            "bufferView" : 13,
            "componentType" : 5126,
            "count" : 1156,
            "max" : [
                0.9888773560523987,
                1.0
            ],
            "min" : [
                0.0,
                0.004644215106964111
            ],
            "type" : "VEC2"
        },
        {
            "bufferView" : 14,
            "componentType" : 5126,
            "count" : 1156,
            "max" : [
                1.0,
                1.0,
                1.0,
                1.0
            ],
            "min" : [
                0.0,
                0.0,
                0.0,
                1.0
            ],
            "type" : "VEC4"
        },
        {
            "bufferView" : 15,
            "componentType" : 5123,
            "count" : 1156,
            "max" : [
                17,
                17,
                13,
                9
            ],
            "min" : [
                6,
                0,
                0,
                0
            ],
            "type" : "VEC4"
        },
        {
            "bufferView" : 16,
            "componentType" : 5126,
            "count" : 1156,
            "max" : [
                1.0,
                1.0,
                0.5697647333145142,
                0.1177046149969101
            ],
            "min" : [
                0.0,
                0.0,
                0.0,
                0.0
            ],
            "type" : "VEC4"
        },
        {
            "bufferView" : 17,
            "componentType" : 5126,
            "count" : 18,
            "max" : [
                1.0000001192092896,
                0.5656843185424805,
                0.1365860402584076,
                0.0,
                0.5739867687225342,
                1.0000001192092896,
                1.0000001192092896,
                0.0,
                1.6670671243446122e-07,
                1.0000001192092896,
                1.0000001192092896,
                0.0,
                3.654808759689331,
                4.0748090744018555,
                0.9789125919342041,
                1.0
            ],
            "min" : [
                -1.0000001192092896,
                -0.5656841397285461,
                -0.13658583164215088,
                0.0,
                -0.5739867687225342,
                -1.0000001192092896,
                -0.19944451749324799,
                0.0,
                -1.937151665742931e-07,
                -1.0000001192092896,
                0.0,
                0.0,
                -3.654808759689331,
                -6.283394813537598,
                -4.044873237609863,
                1.0
            ],
            "type" : "MAT4"
        },
        {
            "bufferView" : 18,
            "componentType" : 5126,
            "count" : 18,
            "max" : [
                1.0000001192092896,
                0.5656843185424805,
                0.1365860402584076,
                0.0,
                0.5739867687225342,
                1.0000001192092896,
                1.0000001192092896,
                0.0,
                1.6670671243446122e-07,
                1.0000001192092896,
                1.0000001192092896,
                0.0,
                3.654808759689331,
                4.0748090744018555,
                0.9789125919342041,
                1.0
            ],
            "min" : [
                -1.0000001192092896,
                -0.5656841397285461,
                -0.13658583164215088,
                0.0,
                -0.5739867687225342,
                -1.0000001192092896,
                -0.19944451749324799,
                0.0,
                -1.937151665742931e-07,
                -1.0000001192092896,
                0.0,
                0.0,
                -3.654808759689331,
                -6.283394813537598,
                -4.044873237609863,
                1.0
            ],
            "type" : "MAT4"
        }
    ],
    "asset" : {
        "copyright" : "Polygon.Studio",
        "generator" : "Khronos Blender glTF 2.0 exporter",
        "version" : "2.0"
    },
    "bufferViews" : [
        {
            "buffer" : 0,
            "byteLength" : 72,
            "byteOffset" : 0,
            "target" : 34963
        },
        {
            "buffer" : 0,
            "byteLength" : 672,
            "byteOffset" : 72,
            "target" : 34962
        },
        {
            "buffer" : 0,
            "byteLength" : 672,
            "byteOffset" : 744,
            "target" : 34962
        },
        {
            "buffer" : 0,
            "byteLength" : 896,
            "byteOffset" : 1416,
            "target" : 34962
        },
        {
            "buffer" : 0,
            "byteLength" : 448,
            "byteOffset" : 2312,
            "target" : 34962
        },
        {
            "buffer" : 0,
            "byteLength" : 896,
            "byteOffset" : 2760,
            "target" : 34962
        },
        {
            "buffer" : 0,
            "byteLength" : 448,
            "byteOffset" : 3656,
            "target" : 34962
        },
        {
            "buffer" : 0,
            "byteLength" : 896,
            "byteOffset" : 4104,
            "target" : 34962
        },
        {
            "buffer" : 0,
            "byteLength" : 448,
            "byteOffset" : 5000,
            "target" : 34962
        },
        {
            "buffer" : 0,
            "byteLength" : 896,
            "byteOffset" : 5448,
            "target" : 34962
        },
        {
            "buffer" : 0,
            "byteLength" : 2520,
            "byteOffset" : 6344,
            "target" : 34963
        },
        {
            "buffer" : 0,
            "byteLength" : 13872,
            "byteOffset" : 8864,
            "target" : 34962
        },
        {
            "buffer" : 0,
            "byteLength" : 13872,
            "byteOffset" : 22736,
            "target" : 34962
        },
        {
            "buffer" : 0,
            "byteLength" : 9248,
            "byteOffset" : 36608,
            "target" : 34962
        },
        {
            "buffer" : 0,
            "byteLength" : 18496,
            "byteOffset" : 45856,
            "target" : 34962
        },
        {
            "buffer" : 0,
            "byteLength" : 9248,
            "byteOffset" : 64352,
            "target" : 34962
        },
        {
            "buffer" : 0,
            "byteLength" : 18496,
            "byteOffset" : 73600,
            "target" : 34962
        },
        {
            "buffer" : 0,
            "byteLength" : 1152,
            "byteOffset" : 92096
        },
        {
            "buffer" : 0,
            "byteLength" : 1152,
            "byteOffset" : 93248
        }
    ],
    "buffers" : [
        {
            "byteLength" : 94400,
            "uri" : "mona.bin"
        }
    ],
    "extensionsUsed" : [
        "KHR_materials_unlit"
    ],
    "images" : [
        {
            "mimeType" : "image/png",
            "name" : "Tex",
            "uri" : "data:image/png;base64,"
        }
    ],
    "materials" : [
        {
            "extensions" : {
                "KHR_materials_unlit" : {}
            },
            "name" : "Mona_[PIXEL][CLAMP]",
            "pbrMetallicRoughness" : {
                "baseColorFactor" : [
                    0.6400000190734865,
                    0.6400000190734865,
                    0.6400000190734865,
                    1.0
                ],
                "baseColorTexture" : {
                    "index" : 0
                },
                "metallicFactor" : 0.0,
                "roughnessFactor" : 0.9
            }
        }
    ],
    "meshes" : [
        {
            "name" : "Cube.013",
            "primitives" : [
                {
                    "attributes" : {
                        "COLOR_0" : 5,
                        "JOINTS_0" : 6,
                        "JOINTS_1" : 8,
                        "NORMAL" : 2,
                        "POSITION" : 1,
                        "TANGENT" : 3,
                        "TEXCOORD_0" : 4,
                        "WEIGHTS_0" : 7,
                        "WEIGHTS_1" : 9
                    },
                    "indices" : 0,
                    "material" : 0
                }
            ]
        },
        {
            "name" : "Cube.001",
            "primitives" : [
                {
                    "attributes" : {
                        "COLOR_0" : 14,
                        "JOINTS_0" : 15,
                        "NORMAL" : 12,
                        "POSITION" : 11,
                        "TEXCOORD_0" : 13,
                        "WEIGHTS_0" : 16
                    },
                    "indices" : 10,
                    "material" : 0
                }
            ]
        }
    ],
    "nodes" : [
        {
            "children" : [
                1,
                2,
                3
            ],
            "name" : "_Mona"
        },
        {
            "children" : [
                4,
                5,
                6
            ],
            "name" : "Armature",
            "scale" : [
                0.21004506945610046,
                0.21004506945610046,
                0.21004506945610046
            ]
        },
        {
            "mesh" : 1,
            "name" : "Body",
            "scale" : [
                0.21004506945610046,
                0.21004506945610046,
                0.21004506945610046
            ],
            "skin" : 0
        },
        {
            "mesh" : 0,
            "name" : "Frills",
            "scale" : [
                0.21004506945610046,
                0.21004506945610046,
                0.21004506945610046
            ],
            "skin" : 1
        },
        {
            "name" : "Armature_knee.L",
            "rotation" : [
                0.0,
                0.7071068286895752,
                0.7071068286895752,
                0.0
            ],
            "translation" : [
                0.4004746973514557,
                1.9295214414596558,
                1.8900635242462158
            ]
        },
        {
            "name" : "Armature_knee.R",
            "rotation" : [
                0.0,
                0.7071068286895752,
                0.7071068286895752,
                0.0
            ],
            "translation" : [
                -0.4004746973514557,
                1.9295214414596558,
                1.8900635242462158
            ]
        },
        {
            "children" : [
                9,
                7,
                8
            ],
            "name" : "Armature_root",
            "translation" : [
                0.0,
                0.0,
                -0.014737337827682495
            ]
        },
        {
            "name" : "Armature_foot.L",
            "rotation" : [
                -4.371138828673793e-08,
                0.0,
                1.0,
                0.0
            ],
            "translation" : [
                0.2672128677368164,
                0.007355630397796631,
                -0.17106088995933533
            ]
        },
        {
            "name" : "Armature_foot.R",
            "rotation" : [
                -4.371138828673793e-08,
                0.0,
                1.0,
                0.0
            ],
            "translation" : [
                -0.2672128677368164,
                0.007355630397796631,
                -0.17106088995933533
            ]
        },
        {
            "children" : [
                10,
                15
            ],
            "name" : "Armature_pelvis",
            "rotation" : [
                -0.7071068286895752,
                0.0,
                0.0,
                0.7071068286895752
            ],
            "translation" : [
                0.0,
                4.044873237609863,
                0.21768683195114136
            ]
        },
        {
            "children" : [
                11,
                13
            ],
            "name" : "Armature_hip",
            "rotation" : [
                -5.332933739055079e-08,
                0.7078443169593811,
                -0.7063685059547424,
                5.344076470237269e-08
            ],
            "scale" : [
                1.0,
                1.0000001192092896,
                1.0
            ],
            "translation" : [
                0.0,
                -1.1920928955078125e-07,
                0.0
            ]
        },
        {
            "children" : [
                12
            ],
            "name" : "Armature_leg.L",
            "rotation" : [
                -0.05824069306254387,
                0.001241242978721857,
                -0.020533842965960503,
                0.9980906844139099
            ],
            "scale" : [
                1.0,
                0.9999998807907104,
                0.9999998807907104
            ],
            "translation" : [
                -0.4533773362636566,
                0.8303592801094055,
                -0.011393154971301556
            ]
        },
        {
            "name" : "Armature_foreleg.L",
            "rotation" : [
                0.0018982524052262306,
                0.0016350731020793319,
                -0.013940311968326569,
                0.9998997449874878
            ],
            "scale" : [
                0.9999999403953552,
                1.0,
                0.9999998211860657
            ],
            "translation" : [
                -3.456783659316898e-08,
                1.2952139377593994,
                -1.4668330550193787e-08
            ]
        },
        {
            "children" : [
                14
            ],
            "name" : "Armature_leg.R",
            "rotation" : [
                -0.058240678161382675,
                -0.0012410914059728384,
                0.020533857867121696,
                0.9980906844139099
            ],
            "scale" : [
                1.0,
                0.9999998807907104,
                0.9999999403953552
            ],
            "translation" : [
                0.4533773362636566,
                0.8303592801094055,
                -0.011393291875720024
            ]
        },
        {
            "name" : "Armature_foreleg.R",
            "rotation" : [
                0.0018982524052262306,
                -0.0016350728692486882,
                0.013940315693616867,
                0.9998998045921326
            ],
            "scale" : [
                1.0,
                1.0,
                0.9999998807907104
            ],
            "translation" : [
                4.1950439566562636e-08,
                1.295214056968689,
                1.57160684466362e-08
            ]
        },
        {
            "children" : [
                16,
                18,
                20
            ],
            "name" : "Armature_chest",
            "rotation" : [
                0.6644399166107178,
                2.784065067373831e-08,
                2.475231397625066e-08,
                0.7473416924476624
            ],
            "translation" : [
                0.0,
                -1.1920928955078125e-07,
                0.0
            ]
        },
        {
            "children" : [
                17
            ],
            "name" : "Armature_neck",
            "rotation" : [
                0.07009104639291763,
                -1.2077415512123935e-08,
                4.373585049677331e-09,
                0.9975407123565674
            ],
            "translation" : [
                -1.2443323747353906e-15,
                1.7865064144134521,
                -3.3993273973464966e-08
            ]
        },
        {
            "name" : "Armature_neck.001",
            "rotation" : [
                0.025529364123940468,
                2.3275475768969045e-08,
                1.878309952019208e-09,
                0.9996740818023682
            ],
            "translation" : [
                -6.201107031025051e-17,
                0.48132482171058655,
                -4.190951585769653e-09
            ]
        },
        {
            "children" : [
                19
            ],
            "name" : "Armature_arm.L",
            "rotation" : [
                -0.018743762746453285,
                0.17170557379722595,
                -0.9397080540657043,
                0.2951519191265106
            ],
            "scale" : [
                0.9999998807907104,
                1.0,
                0.9999998211860657
            ],
            "translation" : [
                0.6219512224197388,
                1.469758152961731,
                0.004225106909871101
            ]
        },
        {
            "name" : "Armature_forearm.L",
            "rotation" : [
                0.03691911697387695,
                -0.0011205504415556788,
                0.005329728592187166,
                0.99930340051651
            ],
            "translation" : [
                1.7574447497281653e-07,
                1.3526333570480347,
                0.0
            ]
        },
        {
            "children" : [
                21
            ],
            "name" : "Armature_arm.R",
            "rotation" : [
                -0.018743788823485374,
                -0.17170578241348267,
                0.9397081136703491,
                0.29515182971954346
            ],
            "scale" : [
                0.9999999403953552,
                1.0,
                1.0
            ],
            "translation" : [
                -0.6219512224197388,
                1.469758152961731,
                0.00422501377761364
            ]
        },
        {
            "name" : "Armature_forearm.R",
            "rotation" : [
                0.03691911697387695,
                0.0011205298360437155,
                -0.005329719744622707,
                0.9993034601211548
            ],
            "scale" : [
                0.9999999403953552,
                1.0,
                0.9999998807907104
            ],
            "translation" : [
                -4.566301470276812e-08,
                1.3526337146759033,
                -7.450580596923828e-08
            ]
        }
    ],
    "samplers" : [
        {}
    ],
    "scene" : 0,
    "scenes" : [
        {
            "name" : "Scene",
            "nodes" : [
                0
            ]
        }
    ],
    "skins" : [
        {
            "inverseBindMatrices" : 17,
            "joints" : [
                4,
                5,
                6,
                7,
                8,
                9,
                10,
                11,
                12,
                13,
                14,
                15,
                16,
                17,
                18,
                19,
                20,
                21
            ],
            "skeleton" : 1
        },
        {
            "inverseBindMatrices" : 18,
            "joints" : [
                4,
                5,
                6,
                7,
                8,
                9,
                10,
                11,
                12,
                13,
                14,
                15,
                16,
                17,
                18,
                19,
                20,
                21
            ],
            "skeleton" : 1
        }
    ],
    "textures" : [
        {
            "sampler" : 0,
            "source" : 0
        }
    ]
}
